<?xml version="1.0" encoding="UTF-8"?>
<svg width="1600" height="900" viewBox="0 0 1600 900" fill="none" xmlns="http://www.w3.org/2000/svg">
  <defs>
    <linearGradient id="g1" x1="0" y1="0" x2="1" y2="1">
      <stop offset="0%" stop-color="#0b6efd"/>
      <stop offset="100%" stop-color="#6c757d"/>
    </linearGradient>
    <linearGradient id="g2" x1="0" y1="0" x2="0" y2="1">
      <stop offset="0%" stop-color="#ffffff" stop-opacity="0.08"/>
      <stop offset="100%" stop-color="#ffffff" stop-opacity="0"/>
    </linearGradient>
    <filter id="blur1" x="-20%" y="-20%" width="140%" height="140%">
      <feGaussianBlur stdDeviation="40"/>
    </filter>
    <pattern id="dots" width="40" height="40" patternUnits="userSpaceOnUse">
      <circle cx="2" cy="2" r="2" fill="#ffffff" opacity="0.06"/>
    </pattern>
  </defs>

  <rect width="1600" height="900" fill="url(#g1)"/>

  <!-- Soft abstract blurs -->
  <g filter="url(#blur1)" opacity="0.35">
    <circle cx="300" cy="200" r="220" fill="#ffd700"/>
    <circle cx="1400" cy="250" r="260" fill="#00d1b2"/>
    <circle cx="900" cy="700" r="240" fill="#845ef7"/>
  </g>

  <!-- Dots texture overlay -->
  <rect width="1600" height="900" fill="url(#dots)"/>

  <!-- Subtle waves -->
  <path d="M0,650 C250,600 350,720 600,690 C900,650 950,770 1200,740 C1350,720 1500,760 1600,740 L1600,900 L0,900 Z" fill="#ffffff" opacity="0.08"/>
  <path d="M0,700 C300,660 400,780 700,760 C1000,740 1100,800 1400,790 C1500,785 1550,800 1600,800 L1600,900 L0,900 Z" fill="#ffffff" opacity="0.06"/>

  <!-- Light vignette at top -->
  <rect width="1600" height="300" fill="url(#g2)"/>
</svg>


